<?xml version="1.0" encoding="UTF-8"?>
<svg width="3.11302in" height=".264754in" version="1.1" viewBox="0 0 298.85 25.4164" xmlns="http://www.w3.org/2000/svg">
  <g transform="translate(-8.24693 9.70393)">
    <g transform="matrix(1.46303 0 0 1.46303 -3.97294 -7.12103)" fill="#000000" stroke="#ffffff" stroke-linecap="round"
      stroke-linejoin="round" stroke-width="0.45" style="paint-order:markers fill stroke"
      aria-label="help@notyourcode.dev">
      <path
        d="m14.1037 11.551v-6.03387q0-1.52214-1.13021-1.52214-0.565105 0-1.08464 0.45573-0.510418 0.45573-1.08464 1.23959v5.86069h-2.22396v-12.8789h2.22396v3.17188l-0.109375 1.67709q0.282553-0.33724 0.57422-0.601564 0.291667-0.273438 0.628907-0.45573 0.337241-0.182292 0.729168-0.273438 0.391928-0.100261 0.865887-0.100261 0.710939 0 1.23959 0.23698 0.528647 0.227865 0.884116 0.656251 0.355469 0.419272 0.528647 1.02084 0.182292 0.592449 0.182292 1.33073v6.21616z" />
      <path
        d="m26.9097 6.2098q0 0.227865-0.01823 0.592449-0.0091 0.364584-0.03646 0.683595h-6.08855q0 0.610678 0.182292 1.07552 0.191407 0.464845 0.528647 0.783856 0.346355 0.309896 0.820314 0.473959 0.483074 0.164063 1.06641 0.164063 0.67448 0 1.44011-0.100261 0.774741-0.109375 1.60417-0.346355v1.76823q-0.355469 0.10026-0.774741 0.182292-0.419271 0.08203-0.856772 0.145833-0.437501 0.0638-0.884116 0.09115-0.446615 0.03646-0.865887 0.03646-1.05729 0-1.89584-0.300782t-1.42188-0.884116q-0.583335-0.592449-0.893231-1.45834-0.309897-0.865887-0.309897-2.00521 0-1.13021 0.309897-2.05078 0.309896-0.929689 0.875001-1.58594 0.565106-0.665366 1.36719-1.02084 0.8112-0.364584 1.80469-0.364584 0.984377 0 1.74089 0.309896 0.756511 0.300782 1.26693 0.847658t0.774741 1.30339 0.264323 1.65886zm-2.26042-0.319011q0.009114-0.546876-0.136719-0.947918-0.145834-0.410157-0.401043-0.67448-0.246094-0.264323-0.583334-0.391928-0.328126-0.127604-0.710939-0.127604-0.838543 0-1.3763 0.565105-0.537762 0.555991-0.638022 1.57683z" />
      <path d="m32.0959 0.403799h-2.61589v-1.73177h4.89454v11.1472h2.67058v1.73177h-7.88413v-1.73177h2.9349z" />
      <path
        d="m47.7001 6.75668q0 1.27604-0.364584 2.20573-0.355469 0.929689-1.00261 1.54948-0.638022 0.610679-1.51302 0.91146-0.875001 0.291668-1.90495 0.291668-0.346355 0-0.69271-0.04557-0.346354-0.04557-0.628907-0.11849v3.6185h-2.22396v-12.8789h1.92318l0.05469 1.36719q0.28255-0.355469 0.583332-0.647137 0.309897-0.291667 0.665366-0.492188 0.355469-0.209636 0.765626-0.319011t0.920575-0.109375q0.820314 0 1.45834 0.328126t1.06641 0.938804q0.437501 0.601564 0.665366 1.46745 0.227865 0.856772 0.227865 1.9323zm-2.33334 0.091146q0-0.765626-0.109375-1.30339-0.109375-0.537761-0.319011-0.884116-0.200521-0.346355-0.501303-0.501303-0.291667-0.164063-0.67448-0.164063-0.565105 0-1.08464 0.45573-0.510417 0.45573-1.08464 1.23959v4.04688q0.264323 0.100261 0.647137 0.164063 0.391927 0.063802 0.79297 0.063802 0.528647 0 0.957033-0.21875 0.437501-0.21875 0.738282-0.619793 0.309897-0.401042 0.47396-0.975262 0.164062-0.583334 0.164062-1.30339z" />
      <path
        d="m55.721 7.81397q-0.02734 0.255209-0.04557 0.546876-0.0091 0.291667-0.0091 0.501303 0 0.364584 0.0638 0.473959t0.191406 0.109375q0.346355 0 0.592449-1.04818 0.255209-1.04818 0.255209-3.13542 0-1.26693-0.145834-2.23308-0.136734-0.975262-0.44663-1.63151-0.309896-0.656251-0.802085-0.993491-0.492188-0.33724-1.1849-0.33724-0.537761 0-1.03906 0.300782t-0.947918 0.847658q-0.437501 0.537761-0.802085 1.29427-0.35547 0.756512-0.619793 1.67709-0.255209 0.91146-0.401042 1.95964-0.145834 1.04818-0.145834 2.17839 0 1.34896 0.209636 2.3698 0.209636 1.02084 0.601563 1.70443 0.401043 0.683595 0.957033 1.02995 0.565106 0.346355 1.27604 0.346355 0.346355 0 0.683595-0.04557 0.346355-0.04557 0.710939-0.145833 0.364584-0.100261 0.756512-0.273438 0.391928-0.173178 0.847658-0.437501v1.74089q-0.683595 0.364584-1.48568 0.565106-0.802085 0.200521-1.64974 0.200521-1.20313 0-2.08724-0.446616-0.875002-0.4375-1.44922-1.32162-0.57422-0.884116-0.856773-2.19662-0.282552-1.32162-0.291667-3.07162-0.0091-1.3763 0.182292-2.64323 0.191407-1.26693 0.546876-2.36068 0.364584-1.10287 0.875002-1.9961 0.519532-0.902345 1.16667-1.54037 0.647137-0.638022 1.41276-0.984377 0.765627-0.355469 1.6224-0.355469 1.07552 0 1.87761 0.437501 0.802084 0.437501 1.33073 1.28516 0.537762 0.847658 0.802085 2.08724 0.264323 1.23959 0.264323 2.83464-0.0091 1.58594-0.182292 2.72527-0.173177 1.13021-0.528646 1.86849-0.35547 0.729168-0.893231 1.07552-0.537762 0.346355-1.26693 0.346355-1.07552 0-1.36719-1.04818-0.264323 0.510417-0.683595 0.783855-0.410157 0.264324-0.920574 0.264324-0.410157 0-0.738283-0.164063-0.319011-0.173178-0.55599-0.537762-0.227865-0.364584-0.35547-0.929689-0.118489-0.57422-0.118489-1.3763 0-0.583334 0.04557-1.19401t0.164062-1.1849q0.11849-0.583334 0.319011-1.09375 0.200522-0.519532 0.510418-0.902345 0.319011-0.382813 0.756512-0.601564 0.446615-0.227865 1.03906-0.227865 0.309896 0 0.601564 0.072917 0.300781 0.063802 0.483073 0.145834l1.35808-0.29167zm-1.56771-3.13542q-0.04557-0.045573-0.145834-0.072917-0.10026-0.036458-0.209636-0.036458-0.291667 0-0.492188 0.33724-0.191407 0.328126-0.309896 0.829429-0.109375 0.501303-0.164063 1.09375-0.04557 0.592449-0.04557 1.1211 0 0.492188 0.01823 0.783856 0.02734 0.291667 0.07292 0.45573 0.04557 0.154948 0.10026 0.209636 0.0638 0.045573 0.127605 0.045573 0.11849 0 0.309896-0.21875 0.191407-0.21875 0.401043-0.701824z" />
      <path
        d="m65.4189 11.551v-6.03387q0-1.52214-1.13021-1.52214-0.565105 0-1.08464 0.45573-0.510418 0.45573-1.08464 1.23959v5.86069h-2.22396v-9.26043h1.92318l0.05469 1.36719q0.282553-0.355469 0.583335-0.647137 0.309896-0.291667 0.665365-0.492188 0.35547-0.209636 0.765627-0.319011t0.920574-0.109375q0.710939 0 1.23959 0.23698 0.528647 0.227865 0.884116 0.656251 0.355469 0.419272 0.528647 1.02084 0.182292 0.592449 0.182292 1.33073v6.21616z" />
      <path
        d="m78.4984 6.84782q0 1.09375-0.309896 2.00521-0.309897 0.902345-0.893231 1.54948-0.583334 0.647137-1.43099 1.00261-0.847658 0.35547-1.9323 0.35547-1.02995 0-1.84115-0.300782-0.8112-0.300782-1.3763-0.893231-0.565105-0.601564-0.865887-1.49479-0.300782-0.902345-0.300782-2.09636 0-1.10287 0.309897-2.00521 0.319011-0.902345 0.902345-1.54037 0.592449-0.638022 1.44011-0.984377 0.847658-0.355469 1.91407-0.355469 1.03906 0 1.85026 0.309896 0.811199 0.300782 1.3763 0.902345t0.856772 1.49479q0.300782 0.884116 0.300782 2.05078zm-2.31511 0.054688q0-1.44011-0.546876-2.16016-0.537761-0.729168-1.59506-0.729168-0.583334 0-0.993491 0.227865t-0.674481 0.628907q-0.264323 0.391928-0.391928 0.920575-0.118489 0.528647-0.118489 1.13021 0 1.44922 0.583334 2.1875 0.583334 0.729168 1.59506 0.729168 0.555991 0 0.966148-0.21875 0.410157-0.227865 0.665365-0.619793 0.255209-0.401042 0.382814-0.938804 0.127604-0.537761 0.127604-1.15755z" />
      <path
        d="m88.0596 11.4598q-0.601564 0.136719-1.21224 0.21875-0.610678 0.08203-1.15755 0.08203-0.91146 0-1.57683-0.191407-0.656251-0.191405-1.09375-0.583332-0.428386-0.391928-0.638022-0.993492-0.200521-0.610678-0.200521-1.44922v-4.52084h-2.48829v-1.73177h2.48829v-2.3698l2.27865-0.592449v2.96224h3.60027v1.73177h-3.60027v4.35678q0 0.79297 0.364584 1.20313 0.364584 0.401042 1.22136 0.401042 0.546876 0 1.06641-0.091146 0.519533-0.091146 0.947919-0.209636z" />
      <path
        d="m96.2536 10.5392q-0.483074 1.20313-1.01172 2.10547-0.519533 0.91146-1.14844 1.51302-0.628907 0.610679-1.40365 0.91146-0.765627 0.309897-1.72266 0.309897-0.227865 0-0.501303-0.02734-0.264323-0.01823-0.546876-0.0638v-1.88672q0.109376 0.01823 0.246095 0.03646 0.145833 0.02734 0.300781 0.03646 0.154949 0.01823 0.309897 0.02734 0.164063 0.0091 0.300782 0.0091 0.382813 0 0.710938-0.145834 0.328126-0.145833 0.601564-0.410157 0.282552-0.255209 0.510417-0.619793 0.227865-0.355469 0.401043-0.783855l-3.67318-9.26042h2.47917l1.92318 5.25001 0.57422 1.69532 0.565105-1.6224 1.94141-5.32293h2.38802z" />
      <path
        d="m109.287 6.84782q0 1.09375-0.30989 2.00521-0.3099 0.902345-0.89323 1.54948-0.58334 0.647137-1.431 1.00261-0.84765 0.35547-1.93229 0.35547-1.02995 0-1.84115-0.300782t-1.3763-0.893231q-0.56511-0.601564-0.86589-1.49479-0.30078-0.902345-0.30078-2.09636 0-1.10287 0.30989-2.00521 0.31901-0.902345 0.90235-1.54037 0.59245-0.638022 1.44011-0.984377 0.84765-0.355469 1.91406-0.355469 1.03907 0 1.85027 0.309896 0.81119 0.300782 1.3763 0.902345t0.85677 1.49479q0.30078 0.884116 0.30078 2.05078zm-2.3151 0.054688q0-1.44011-0.54688-2.16016-0.53776-0.729168-1.59506-0.729168-0.58333 0-0.99349 0.227865-0.41015 0.227865-0.67448 0.628907-0.26432 0.391928-0.39192 0.920575-0.11849 0.528647-0.11849 1.13021 0 1.44922 0.58333 2.1875 0.58333 0.729168 1.59505 0.729168 0.556 0 0.96615-0.21875 0.41016-0.227865 0.66537-0.619793 0.25521-0.401042 0.38281-0.938804 0.12761-0.537761 0.12761-1.15755z" />
      <path
        d="m113.416 2.29052v6.03387q0 0.756512 0.28255 1.14844 0.28255 0.382813 0.85677 0.382813 0.55599 0 1.06641-0.45573 0.51953-0.464845 1.09375-1.2487v-5.86069h2.22396v9.26043h-1.92318l-0.0547-1.36719q-0.29167 0.355469-0.59245 0.647136-0.30078 0.291668-0.65625 0.501303-0.34636 0.200522-0.76563 0.309897-0.41016 0.11849-0.91146 0.11849-0.71094 0-1.2487-0.227865-0.52865-0.23698-0.88412-0.665366t-0.53776-1.02084q-0.17318-0.601564-0.17318-1.33985v-6.21616z" />
      <path
        d="m127.435 5.89079q0.0182-0.519532-0.0547-0.884116-0.0638-0.364584-0.21875-0.601564-0.14583-0.23698-0.36458-0.346355t-0.5013-0.109375q-0.49219 0-1.02084 0.410157-0.51953 0.401042-1.14844 1.33073v5.86069h-2.27865v-9.26043h2.01433l0.082 1.34896q0.22786-0.355469 0.51042-0.638022 0.29166-0.282553 0.63802-0.483074 0.35547-0.209636 0.78385-0.319011 0.42839-0.109375 0.93881-0.109375 0.70182 0 1.23958 0.246094 0.54688 0.23698 0.91146 0.710939 0.3737 0.473959 0.54688 1.19401 0.18229 0.710939 0.15495 1.64974z" />
      <path
        d="m139.229 11.1955q-0.65625 0.264324-1.35808 0.391928-0.70182 0.127605-1.46745 0.127605-1.10286 0-1.97786-0.300782-0.87501-0.300782-1.48568-0.893231-0.61068-0.592449-0.93881-1.46745-0.31901-0.875002-0.31901-2.02344 0-1.11198 0.34636-2.01433 0.35547-0.902345 0.99349-1.54037t1.53125-0.984377q0.90235-0.346355 2.00521-0.346355 0.90235 0 1.51303 0.100261 0.61979 0.091146 1.11198 0.23698v2.16016q-0.56511-0.282553-1.23047-0.437501-0.65626-0.154948-1.2487-0.154948-0.6198 0-1.11199 0.209636-0.49218 0.209636-0.82942 0.583334t-0.51954 0.91146q-0.17317 0.528647-0.17317 1.16667 0 0.665366 0.1914 1.19401 0.19141 0.528647 0.53776 0.902345 0.35547 0.364584 0.84766 0.565105 0.49219 0.191407 1.09375 0.191407 0.29167 0 0.61068-0.036458 0.32813-0.045573 0.64714-0.11849 0.32812-0.082031 0.63802-0.182292 0.31901-0.100261 0.59245-0.21875z" />
      <path
        d="m150.34 6.84782q0 1.09375-0.3099 2.00521-0.30989 0.902345-0.89323 1.54948-0.58333 0.647137-1.43099 1.00261-0.84766 0.35547-1.9323 0.35547-1.02995 0-1.84114-0.300782-0.8112-0.300782-1.37631-0.893231-0.5651-0.601564-0.86589-1.49479-0.30078-0.902345-0.30078-2.09636 0-1.10287 0.3099-2.00521 0.31901-0.902345 0.90234-1.54037 0.59245-0.638022 1.44011-0.984377 0.84766-0.355469 1.91407-0.355469 1.03906 0 1.85026 0.309896 0.8112 0.300782 1.3763 0.902345 0.56511 0.601564 0.85678 1.49479 0.30078 0.884116 0.30078 2.05078zm-2.31511 0.054688q0-1.44011-0.54688-2.16016-0.53776-0.729168-1.59505-0.729168-0.58333 0-0.99349 0.227865t-0.67448 0.628907q-0.26433 0.391928-0.39193 0.920575-0.11849 0.528647-0.11849 1.13021 0 1.44922 0.58333 2.1875 0.58334 0.729168 1.59506 0.729168 0.55599 0 0.96615-0.21875 0.41015-0.227865 0.66536-0.619793 0.25521-0.401042 0.38282-0.938804 0.1276-0.537761 0.1276-1.15755z" />
      <path
        d="m158.087 11.551-0.0547-1.36719q-0.29167 0.355469-0.60157 0.647136-0.30989 0.291668-0.66536 0.501303-0.35547 0.200522-0.76563 0.309897-0.40104 0.11849-0.89323 0.11849-0.82031 0-1.45833-0.328126-0.63803-0.328126-1.07553-0.929689-0.42838-0.610678-0.65625-1.47657-0.22786-0.865887-0.22786-1.9323 0-1.27604 0.35547-2.20573 0.36458-0.938804 1.0026-1.54948 0.63802-0.619793 1.51303-0.91146 0.875-0.300782 1.90495-0.300782 0.34635 0 0.69271 0.045573 0.35547 0.045573 0.6289 0.11849v-3.6185h2.22397v12.8789zm-4.06512-4.5573q0 0.765626 0.10026 1.3125 0.10938 0.537761 0.3099 0.884116 0.20964 0.346355 0.51042 0.510418 0.30078 0.154948 0.68359 0.154948 0.56511 0 1.07553-0.45573 0.51041-0.45573 1.08463-1.2487v-4.04688q-0.26432-0.100261-0.65625-0.164063-0.38281-0.063802-0.77474-0.063802-0.53776 0-0.96615 0.21875-0.42838 0.21875-0.73828 0.619793-0.30078 0.401042-0.46484 0.984377-0.16407 0.57422-0.16407 1.29427z" />
      <path
        d="m170.592 6.2098q0 0.227865-0.0182 0.592449-9e-3 0.364584-0.0365 0.683595h-6.08855q0 0.610678 0.18229 1.07552 0.19141 0.464845 0.52865 0.783856 0.34635 0.309896 0.82031 0.473959 0.48307 0.164063 1.06641 0.164063 0.67448 0 1.44011-0.100261 0.77474-0.109375 1.60417-0.346355v1.76823q-0.35547 0.10026-0.77475 0.182292-0.41927 0.08203-0.85677 0.145833-0.4375 0.0638-0.88411 0.09115-0.44662 0.03646-0.86589 0.03646-1.0573 0-1.89584-0.300782t-1.42188-0.884116q-0.58333-0.592449-0.89323-1.45834-0.30989-0.865887-0.30989-2.00521 0-1.13021 0.30989-2.05078 0.3099-0.929689 0.875-1.58594 0.56511-0.665366 1.36719-1.02084 0.8112-0.364584 1.8047-0.364584 0.98437 0 1.74088 0.309896 0.75652 0.300782 1.26693 0.847658 0.51042 0.546876 0.77474 1.30339 0.26433 0.756512 0.26433 1.65886zm-2.26042-0.319011q9e-3 -0.546876-0.13672-0.947918-0.14584-0.410157-0.40104-0.67448-0.2461-0.264323-0.58334-0.391928-0.32812-0.127604-0.71094-0.127604-0.83854 0-1.3763 0.565105-0.53776 0.555991-0.63802 1.57683z" />
      <path
        d="m176.599 8.18767q0.38281 0 0.71093 0.145834 0.32813 0.136719 0.56511 0.382813 0.24609 0.23698 0.38281 0.565105t0.13672 0.701824q0 0.364584-0.13672 0.692709-0.13672 0.319011-0.38281 0.565105-0.23698 0.23698-0.56511 0.373699-0.32812 0.145834-0.71093 0.145834-0.36459 0-0.6836-0.145834-0.31901-0.136719-0.55599-0.373699-0.23698-0.246094-0.3737-0.565105-0.13672-0.328125-0.13672-0.692709 0-0.373699 0.13672-0.701824t0.3737-0.565105q0.23698-0.246094 0.55599-0.382813 0.31901-0.145834 0.6836-0.145834z" />
      <path
        d="m188.876 11.551-0.0547-1.36719q-0.29167 0.355469-0.60156 0.647136-0.3099 0.291668-0.66537 0.501303-0.35547 0.200522-0.76562 0.309897-0.40105 0.11849-0.89324 0.11849-0.82031 0-1.45833-0.328126t-1.07552-0.929689q-0.42839-0.610678-0.65626-1.47657-0.22786-0.865887-0.22786-1.9323 0-1.27604 0.35547-2.20573 0.36458-0.938804 1.00261-1.54948 0.63802-0.619793 1.51302-0.91146 0.875-0.300782 1.90495-0.300782 0.34636 0 0.69271 0.045573 0.35547 0.045573 0.62891 0.11849v-3.6185h2.22396v12.8789zm-4.06511-4.5573q0 0.765626 0.10026 1.3125 0.10937 0.537761 0.30989 0.884116 0.20964 0.346355 0.51042 0.510418 0.30078 0.154948 0.6836 0.154948 0.5651 0 1.07552-0.45573t1.08464-1.2487v-4.04688q-0.26433-0.100261-0.65625-0.164063-0.38282-0.063802-0.77474-0.063802-0.53777 0-0.96615 0.21875-0.42839 0.21875-0.73829 0.619793-0.30078 0.401042-0.46484 0.984377-0.16406 0.57422-0.16406 1.29427z" />
      <path
        d="m201.381 6.2098q0 0.227865-0.0182 0.592449-9e-3 0.364584-0.0365 0.683595h-6.08855q0 0.610678 0.18229 1.07552 0.19141 0.464845 0.52865 0.783856 0.34635 0.309896 0.82031 0.473959 0.48308 0.164063 1.06641 0.164063 0.67448 0 1.44011-0.100261 0.77474-0.109375 1.60417-0.346355v1.76823q-0.35547 0.10026-0.77474 0.182292-0.41927 0.08203-0.85677 0.145833-0.43751 0.0638-0.88412 0.09115-0.44662 0.03646-0.86589 0.03646-1.05729 0-1.89583-0.300782-0.83855-0.300782-1.42188-0.884116-0.58334-0.592449-0.89323-1.45834-0.3099-0.865887-0.3099-2.00521 0-1.13021 0.3099-2.05078 0.30989-0.929689 0.875-1.58594 0.5651-0.665366 1.36719-1.02084 0.8112-0.364584 1.80469-0.364584 0.98438 0 1.74089 0.309896 0.75651 0.300782 1.26693 0.847658 0.51041 0.546876 0.77474 1.30339 0.26432 0.756512 0.26432 1.65886zm-2.26042-0.319011q9e-3 -0.546876-0.13672-0.947918-0.14583-0.410157-0.40104-0.67448-0.24609-0.264323-0.58333-0.391928-0.32813-0.127604-0.71094-0.127604-0.83855 0-1.37631 0.565105-0.53776 0.555991-0.63802 1.57683z" />
      <path
        d="m208.755 11.551h-2.5612l-3.67319-9.26043h2.47917l1.92319 5.25001 0.57421 1.69532 0.56511-1.6224 1.94141-5.32293h2.38802z" />
    </g>
  </g>
</svg>